<?xml version="1.0" standalone="no"?>
<!DOCTYPE svg PUBLIC "-//W3C//DTD SVG 20010904//EN"
 "http://www.w3.org/TR/2001/REC-SVG-20010904/DTD/svg10.dtd">
<svg version="1.0" xmlns="http://www.w3.org/2000/svg"
 width="640.000000pt" height="640.000000pt" viewBox="0 0 640.000000 640.000000"
 preserveAspectRatio="xMidYMid meet">
<metadata>
Created by potrace 1.11, written by Peter Selinger 2001-2013
</metadata>
<g transform="translate(0.000000,640.000000) scale(0.100000,-0.100000)"
fill="#000000" stroke="none">
<path d="M2947 4944 c-1 -1 -72 -5 -157 -9 -85 -3 -168 -8 -185 -9 -16 -2 -64
-7 -105 -10 -41 -4 -86 -9 -100 -11 -14 -1 -50 -6 -80 -9 -30 -4 -62 -9 -70
-11 -8 -2 -35 -7 -60 -10 -154 -21 -418 -99 -533 -156 -121 -61 -230 -154
-244 -206 -3 -14 -11 -22 -17 -20 -296 122 -328 128 -666 122 -259 -5 -288 -7
-360 -20 -63 -12 -164 -57 -210 -94 -54 -43 -72 -63 -105 -118 -54 -90 -54
-95 -51 -908 4 -711 5 -753 23 -811 54 -167 204 -290 449 -367 101 -32 196
-51 304 -62 30 -3 71 -8 90 -10 19 -2 43 -4 53 -4 9 -1 17 -8 17 -16 0 -30 59
-131 110 -187 49 -55 153 -139 222 -179 187 -109 535 -229 798 -275 25 -4 47
-8 50 -9 13 -3 108 -18 127 -20 13 -2 40 -6 60 -10 56 -9 86 -13 248 -30 22
-2 76 -7 120 -10 44 -3 100 -8 125 -10 248 -23 1062 -22 1235 0 17 3 66 7 110
10 44 3 91 7 105 10 14 2 52 7 85 10 33 3 71 8 85 10 14 2 47 6 73 10 27 4 59
8 70 11 12 2 38 7 57 10 409 66 885 228 1106 376 23 16 45 28 48 28 7 0 134
91 181 129 17 14 71 66 121 116 145 148 246 315 295 491 21 76 22 94 20 439
-4 633 -11 750 -51 857 -53 143 -226 277 -397 308 -67 12 -247 6 -301 -9 -18
-5 -32 -8 -32 -6 0 7 -110 -34 -132 -49 -11 -8 -28 -26 -38 -40 l-16 -26 -24
47 c-47 96 -177 245 -252 291 -16 9 -28 20 -28 24 0 4 -5 8 -12 8 -6 0 -19 7
-29 16 -32 29 -196 116 -300 159 -114 47 -352 120 -464 141 -11 2 -33 7 -50
10 -31 7 -64 13 -100 18 -11 1 -33 5 -50 9 -37 8 -124 19 -255 32 -36 4 -81 8
-100 10 -121 13 -802 28 -813 19z"/>
</g>
</svg>
